<?xml version="1.0" encoding="UTF-8" standalone="no"?>
<!-- Created with Inkscape (http://www.inkscape.org/) -->

<svg
   width="1411.1112mm"
   height="1411.1112mm"
   viewBox="0 0 1411.1112 1411.1112"
   version="1.1"
   id="svg5"
   inkscape:version="1.1.1 (3bf5ae0d25, 2021-09-20)"
   sodipodi:docname="mapoverlays.svg"
   xmlns:inkscape="http://www.inkscape.org/namespaces/inkscape"
   xmlns:sodipodi="http://sodipodi.sourceforge.net/DTD/sodipodi-0.dtd"
   xmlns="http://www.w3.org/2000/svg"
   xmlns:svg="http://www.w3.org/2000/svg">
  <sodipodi:namedview
     id="namedview7"
     pagecolor="#ffffff"
     bordercolor="#666666"
     borderopacity="1.0"
     inkscape:pageshadow="2"
     inkscape:pageopacity="0.0"
     inkscape:pagecheckerboard="0"
     inkscape:document-units="mm"
     showgrid="false"
     inkscape:zoom="0.1263006"
     inkscape:cx="2482.1735"
     inkscape:cy="1729.9997"
     inkscape:window-width="1280"
     inkscape:window-height="961"
     inkscape:window-x="-8"
     inkscape:window-y="-8"
     inkscape:window-maximized="1"
     inkscape:current-layer="layer1"
     inkscape:snap-global="true" />
  <defs
     id="defs2" />
  <g
     inkscape:label="Layer 1"
     inkscape:groupmode="layer"
     id="layer1"
     transform="translate(614.08551,593.34735)">
    <path
       style="font-variation-settings:normal;opacity:1;fill:#ff0000;fill-opacity:0.22298852;stroke:#ff0000;stroke-width:1;stroke-linecap:round;stroke-linejoin:round;stroke-miterlimit:4;stroke-dasharray:none;stroke-dashoffset:0;stroke-opacity:1;paint-order:markers fill stroke;stop-color:#000000;stop-opacity:1"
       d="m 85.086549,-233.76257 21.478791,18.33105 4.44389,22.96009 -7.77679,15.92395 5.36969,24.07107 58.51123,-19.07169 7.96198,-6.85099 19.442,-4.25873 3.88842,-19.0717 -2.40712,-10.92457 -1.66645,-12.2207 -4.44389,-9.07294 -8.70262,-9.81358 -4.62905,-3.51808 -9.25811,8.88778 -2.59226,-1.85164 -10.18392,1.85164 -10.18391,-2.77744 -8.51747,-2.96259 -11.85037,-19.62719 -14.81296,6.11036 -10.554233,6.48066 -7.961974,8.51746 z"
       id="path902" />
    <path
       style="font-variation-settings:normal;opacity:1;vector-effect:none;fill:#ff0000;fill-opacity:0.222989;stroke:#ff0000;stroke-width:1;stroke-linecap:round;stroke-linejoin:round;stroke-miterlimit:4;stroke-dasharray:none;stroke-dashoffset:0;stroke-opacity:1;-inkscape-stroke:none;paint-order:markers fill stroke;stop-color:#000000;stop-opacity:1"
       d="m -67.857326,-238.20646 4.629044,19.25685 -14.072314,3.14778 9.628425,43.32792 12.405863,-2.59228 2.221944,11.29491 9.813581,-2.40713 2.777437,12.40586 34.2549952,-6.11034 -2.4071262,-13.51685 12.2207071,-4.07355 -2.2219443,-12.03555 12.7761732,-2.03676 -8.1471291,-42.40213 -13.1465107,1.85161 -3.3329032,-12.96133 -22.034288,4.07355 -2.592282,-14.6278 -13.14651,2.22194 2.407126,15.36846 c 0,0 -12.405863,2.22194 -12.405863,1.48129 0,-0.74065 -3.518085,-16.1091 -3.518085,-16.1091 l -6.850988,2.59228 z"
       id="path2028" />
    <path
       style="font-variation-settings:normal;opacity:1;vector-effect:none;fill:#ff0000;fill-opacity:0.222989;stroke:#ff0000;stroke-width:1;stroke-linecap:round;stroke-linejoin:round;stroke-miterlimit:4;stroke-dasharray:none;stroke-dashoffset:0;stroke-opacity:1;-inkscape-stroke:none;paint-order:markers fill stroke;stop-color:#000000;stop-opacity:1"
       d="m 1.3932858,-189.50884 12.7761732,-2.03676 24.441414,-6.29552 -6.665833,-27.58914 53.141509,-8.33231 21.478771,18.33105 4.44391,22.96009 -7.77679,15.92395 -30.922064,8.88777 -1.296141,-4.62904 H 67.49615 l -2.221944,-4.44389 -3.147748,0.9258 v -4.25873 l -6.851015,-7.03614 -7.406481,1.48129 -4.629044,11.66522 -29.996262,5.92518 -9.6284259,-9.44327 z"
       id="path2180" />
  </g>
</svg>
